{"title":"CAN live in Soest, Winter 1970","uid":9964022,"size":6420802728,"categoryP":"video","categoryS":"music_videos","magnet":"?xt=urn:btih:38e14d06bfa3d9831f1bfc2ec01b28246a65efd5&amp;dn=CAN+live+in+Soest%2C+Winter+1970&amp;tr=udp%3A%2F%2Ftracker.openbittorrent.com%3A80&amp;tr=udp%3A%2F%2Fopen.demonii.com%3A1337&amp;tr=udp%3A%2F%2Ftracker.coppersurfer.tk%3A6969&amp;tr=udp%3A%2F%2Fexodus.desync.com%3A6969","seeders":1,"leechers":1,"uploader":"Alex_AB","files":1,"time":1397552934,"description":"My connection is slow, so be patient\nPlease, seed until at least 1.0\n\n\n\nThis is weird because it has 3 audio tracks that are the same, just different quality. Anyway, that's how I found it.\n\n\n\nMusicians:\nHolger Czukay - bass\nIrmin Schmidt - keyboards\nMichael Karoli - guitar\nJaki Liebezeit - drums\nDamo Suzuki - vocals\n\nTrack List:\n1. Sense All Of Mine\n2. Oh Yeah\n3. I Feel Alright\n4. Mother Sky\n5. Deadlock\n6. Bring Me Coffee Or Tea\n7. Don't Turn The Light On, Leave Me Alone\n8. Paperhouse\n\n\nScreenshots: &lt;a href=&quot;\nhttp://t.imgbox.com/6i0xfxIP.jpg&quot; rel=&quot;nofollow&quot; target=&quot;_NEW&quot;&gt;\nhttp://t.imgbox.com/6i0xfxIP.jpg&lt;/a&gt; &lt;a href=&quot;\nhttp://t.imgbox.com/s3hyPa94.jpg&quot; rel=&quot;nofollow&quot; target=&quot;_NEW&quot;&gt;\nhttp://t.imgbox.com/s3hyPa94.jpg&lt;/a&gt; &lt;a href=&quot;\nhttp://t.imgbox.com/0ASGgAHB.jpg&quot; rel=&quot;nofollow&quot; target=&quot;_NEW&quot;&gt;\nhttp://t.imgbox.com/0ASGgAHB.jpg&lt;/a&gt; &lt;a href=&quot;\nhttp://t.imgbox.com/3cbbvgjk.jpg&quot; rel=&quot;nofollow&quot; target=&quot;_NEW&quot;&gt;\nhttp://t.imgbox.com/3cbbvgjk.jpg&lt;/a&gt;\n\n\n\nGeneral\nID                                       : 1 (0x1)\nComplete name                            : C:WDR HD_Can - live in Soest, Winter 1970.ts\nFormat                                   : MPEG-TS\nFile size                                : 5.98 GiB\nDuration                                 : 1h 24mn\nOverall bit rate mode                    : Variable\nOverall bit rate                         : 10.1 Mbps\n\n\n\nVideo\nID                                       : 5501 (0x157D)\nMenu ID                                  : 1 (0x1)\nFormat                                   : AVC\nFormat/Info                              : Advanced Video Codec\nFormat profile                           : &lt;a class=&quot;__cf_email__&quot; href=&quot;/cdn-cgi/l/email-protection&quot; data-cfemail=&quot;460e2f212e060a726876&quot;&gt;[email&amp;#160;protected]&lt;/a&gt;&lt;script cf-hash='f9e31' type=&quot;text/javascript&quot;&gt;\n/* &lt;![CDATA[ */!function(){try{var t=&quot;currentScript&quot;in document?document.currentScript:function(){for(var t=document.getElementsByTagName(&quot;script&quot;),e=t.length;e--;)if(t[e].getAttribute(&quot;cf-hash&quot;))return t[e]}();if(t&amp;&amp;t.previousSibling){var e,r,n,i,c=t.previousSibling,a=c.getAttribute(&quot;data-cfemail&quot;);if(a){for(e=&quot;&quot;,r=parseInt(a.substr(0,2),16),n=2;a.length-n;n+=2)i=parseInt(a.substr(n,2),16)^r,e+=String.fromCharCode(i);e=document.createTextNode(e),c.parentNode.replaceChild(e,c)}}}catch(u){}}();/* ]]&gt; */&lt;/script&gt;\nFormat settings, CABAC                   : Yes\nFormat settings, ReFrames                : 4 frames\nCodec ID                                 : 27\nDuration                                 : 1h 24mn\nBit rate                                 : 8 797 Kbps\nWidth                                    : 1 280 pixels\nHeight                                   : 720 pixels\nDisplay aspect ratio                     : 16:9\nFrame rate                               : 50.000 fps\nColor space                              : YUV\nChroma subsampling                       : 4:2:0\nBit depth                                : 8 bits\nScan type                                : Progressive\nBits/(Pixel*Frame)                       : 0.191\nStream size                              : 5.19 GiB (87%)\n\n\n\nAudio #1\nID                                       : 5502 (0x157E)\nMenu ID                                  : 1 (0x1)\nFormat                                   : MPEG Audio\nFormat version                           : Version 1\nFormat profile                           : Layer 2\nCodec ID                                 : 3\nDuration                                 : 1h 24mn\nBit rate mode                            : Constant\nBit rate                                 : 192 Kbps\nChannel(s)                               : 2 channels\nSampling rate                            : 48.0 KHz\nCompression mode                         : Lossy\nStream size                              : 116 MiB (2%)\nLanguage                                 : German\n\n\n\nAudio #2\nID                                       : 5503 (0x157F)\nMenu ID                                  : 1 (0x1)\nFormat                                   : MPEG Audio\nFormat version                           : Version 1\nFormat profile                           : Layer 2\nCodec ID                                 : 3\nDuration                                 : 1h 24mn\nBit rate mode                            : Constant\nBit rate                                 : 192 Kbps\nChannel(s)                               : 2 channels\nSampling rate                            : 48.0 KHz\nCompression mode                         : Lossy\nStream size                              : 116 MiB (2%)\n\n\n\nAudio #3\nID                                       : 5506 (0x1582)\nMenu ID                                  : 1 (0x1)\nFormat                                   : AC-3\nFormat/Info                              : Audio Coding 3\nMode extension                           : CM (complete main)\nFormat settings, Endianness              : Big\nCodec ID                                 : 6\nDuration                                 : 1h 24mn\nBit rate mode                            : Constant\nBit rate                                 : 448 Kbps\nChannel(s)                               : 2 channels\nChannel positions                        : Front: L R\nSampling rate                            : 48.0 KHz\nBit depth                                : 16 bits\nCompression mode                         : Lossy\nStream size                              : 271 MiB (4%)\nLanguage                                 : German\n","torrent":{"xt":"urn:btih:38e14d06bfa3d9831f1bfc2ec01b28246a65efd5","amp;dn":"CAN+live+in+Soest%2C+Winter+1970","amp;tr":["udp%3A%2F%2Ftracker.openbittorrent.com%3A80","udp%3A%2F%2Fopen.demonii.com%3A1337","udp%3A%2F%2Ftracker.coppersurfer.tk%3A6969","udp%3A%2F%2Fexodus.desync.com%3A6969"],"infoHash":"38e14d06bfa3d9831f1bfc2ec01b28246a65efd5","infoHashBuffer":{"type":"Buffer","data":[56,225,77,6,191,163,217,131,31,27,252,46,192,27,40,36,106,101,239,213]},"announce":[],"urlList":[]}}